<svg xmlns="http://www.w3.org/2000/svg" version="1.1" xmlns:xlink="http://www.w3.org/1999/xlink" width="512" height="512" x="0" y="0" viewBox="0 0 64 64" style="enable-background:new 0 0 512 512" xml:space="preserve" className="icon-svg"><g><path d="M29 44H6c-1.1 0-2-.9-2-2V8c0-1.1.9-2 2-2h49c1.1 0 2 .9 2 2v23c0 .55.45 1 1 1s1-.45 1-1V8c0-2.21-1.79-4-4-4H6C3.79 4 2 5.79 2 8v34c0 2.21 1.79 4 4 4h23c.55 0 1-.45 1-1s-.45-1-1-1z" fill="#000000" opacity="1" data-original="#000000" class=""></path><path d="M48 30v8.05c3.15.44 5.63 2.99 5.97 6.19H62c-.37-7.61-6.42-13.75-14-14.24zM52.49 49.34l5.67 5.68a14.92 14.92 0 0 0 2.72-4.29c.58-1.42.95-2.93 1.08-4.49h-8.07a6.978 6.978 0 0 1-1.41 3.09z" fill="#000000" opacity="1" data-original="#000000" class=""></path><path d="M47.01 51.99c-3.86 0-7-3.14-7-7.01 0-3.52 2.61-6.45 5.99-6.93V30c-7.81.52-14 7.04-14 14.98S38.73 60 47.01 60c3.6 0 7-1.26 9.73-3.59l-5.69-5.7a6.946 6.946 0 0 1-4.03 1.28zM33 20c0-.53-.15-1.03-.4-1.46l3.29-3.76c.34.14.71.22 1.1.22s.76-.08 1.1-.22l3.29 3.76c-.24.43-.4.93-.4 1.46 0 1.65 1.35 3 3 3s3-1.35 3-3c0-.53-.15-1.03-.4-1.46l3.29-3.76c.34.14.71.22 1.1.22 1.65 0 3-1.35 3-3s-1.35-3-3-3-3 1.35-3 3c0 .53.15 1.03.4 1.46l-3.29 3.76c-.34-.14-.71-.22-1.1-.22s-.76.08-1.1.22l-3.29-3.76c.24-.43.4-.93.4-1.46 0-1.65-1.35-3-3-3s-3 1.35-3 3c0 .53.15 1.03.4 1.46l-3.29 3.76c-.34-.14-.71-.22-1.1-.22-1.65 0-3 1.35-3 3s1.35 3 3 3 3-1.35 3-3z" fill="#000000" opacity="1" data-original="#000000" class=""></path><rect width="6" height="13" x="7" y="28" rx="1" fill="#000000" opacity="1" data-original="#000000" class=""></rect><rect width="6" height="17" x="15" y="24" rx="1" fill="#000000" opacity="1" data-original="#000000" class=""></rect><rect width="6" height="10" x="23" y="31" rx="1" fill="#000000" opacity="1" data-original="#000000" class=""></rect><path d="M8 11h2c.55 0 1-.45 1-1s-.45-1-1-1H8c-.55 0-1 .45-1 1s.45 1 1 1zM14 11h8c.55 0 1-.45 1-1s-.45-1-1-1h-8c-.55 0-1 .45-1 1s.45 1 1 1zM8 16h2c.55 0 1-.45 1-1s-.45-1-1-1H8c-.55 0-1 .45-1 1s.45 1 1 1zM14 16h8c.55 0 1-.45 1-1s-.45-1-1-1h-8c-.55 0-1 .45-1 1s.45 1 1 1zM8 21h2c.55 0 1-.45 1-1s-.45-1-1-1H8c-.55 0-1 .45-1 1s.45 1 1 1zM23 20c0-.55-.45-1-1-1h-8c-.55 0-1 .45-1 1s.45 1 1 1h8c.55 0 1-.45 1-1z" fill="#000000" opacity="1" data-original="#000000" class=""></path></g></svg>